<svg width="371" height="160" viewBox="0 0 371 160" fill="none" xmlns="http://www.w3.org/2000/svg">
<rect width="371" height="160" fill="#111827"/>
<path d="M331.966 119.896C325.31 119.896 321.385 116.824 320.19 110.68C317.203 114.093 313.918 116.568 310.334 118.104C306.75 119.555 303.209 120.28 299.71 120.28C293.737 120.28 289.342 118.616 286.526 115.288C283.71 111.96 282.302 107.949 282.302 103.256C282.302 98.2213 284.009 94.2533 287.422 91.352C290.921 88.3653 296.937 86.872 305.47 86.872H319.934V76.504C319.934 69.6773 318.739 64.984 316.35 62.424C314.046 59.7786 310.889 58.456 306.878 58.456C304.318 58.456 302.014 58.968 299.966 59.992C297.918 61.016 296.425 62.8933 295.486 65.624C294.633 68.2693 294.547 72.152 295.23 77.272L285.118 75.736C284.691 71.7253 285.203 68.1413 286.654 64.984C288.19 61.7413 290.665 59.1813 294.078 57.304C297.577 55.3413 301.929 54.36 307.134 54.36C313.363 54.36 318.142 55.4267 321.47 57.56C324.798 59.608 327.102 62.296 328.382 65.624C329.747 68.952 330.43 72.5786 330.43 76.504V105.304C330.43 109.656 330.899 112.387 331.838 113.496C332.862 114.605 333.971 115.16 335.166 115.16C335.934 115.16 336.745 114.989 337.598 114.648C338.451 114.221 339.39 113.581 340.414 112.728L342.718 115.928C341.438 117.037 339.902 117.976 338.11 118.744C336.403 119.512 334.355 119.896 331.966 119.896ZM303.294 114.904C305.683 114.904 308.243 114.264 310.974 112.984C313.79 111.619 316.777 108.931 319.934 104.92V90.968H306.878C302.099 90.968 298.601 91.9493 296.382 93.912C294.249 95.7893 293.182 98.7333 293.182 102.744C293.182 106.584 293.993 109.571 295.614 111.704C297.321 113.837 299.881 114.904 303.294 114.904Z" fill="#14B8A6"/>
<path d="M245.613 93.144L237.805 91.224C227.138 88.4933 221.805 82.3493 221.805 72.792C221.805 69.6346 222.53 66.648 223.981 63.832C225.432 61.016 227.736 58.7546 230.893 57.048C234.136 55.256 238.274 54.36 243.309 54.36C248.941 54.36 253.464 55.2987 256.877 57.176C260.29 59.0533 262.68 61.4853 264.045 64.472C265.41 67.4587 265.837 70.7013 265.325 74.2L255.341 75.992C256.365 70.4453 255.768 66.136 253.549 63.064C251.416 59.992 247.874 58.456 242.925 58.456C239.085 58.456 236.013 59.4373 233.709 61.4C231.405 63.2773 230.253 66.0507 230.253 69.72C230.253 72.4507 231.106 74.8826 232.813 77.016C234.52 79.064 237.378 80.6 241.389 81.624L249.453 83.544C255.085 84.9093 259.437 87.0853 262.509 90.072C265.666 93.0586 267.245 96.984 267.245 101.848C267.245 107.309 265.24 111.747 261.229 115.16C257.304 118.573 251.672 120.28 244.333 120.28C240.834 120.28 237.421 119.768 234.093 118.744C230.85 117.635 227.992 115.928 225.517 113.624C223.128 111.235 221.378 108.163 220.269 104.408L227.437 101.848C228.376 107.224 230.424 110.979 233.581 113.112C236.738 115.245 240.365 116.312 244.461 116.312C246.85 116.312 249.112 115.928 251.245 115.16C253.464 114.392 255.256 113.197 256.621 111.576C257.986 109.869 258.669 107.693 258.669 105.048C258.669 102.317 257.73 99.9706 255.853 98.008C253.976 96.0453 250.562 94.424 245.613 93.144Z" fill="#14B8A6"/>
<path d="M108.959 27.736V24.28H129.311V108.632C129.311 111.619 129.439 113.368 129.695 113.88C129.951 114.392 130.762 114.733 132.127 114.904L139.167 115.672V119H108.959V115.672L115.999 114.904C117.364 114.733 118.175 114.392 118.431 113.88C118.687 113.368 118.815 111.619 118.815 108.632V34.648C118.815 31.6614 118.687 29.912 118.431 29.4C118.175 28.888 117.364 28.5467 115.999 28.376L108.959 27.736Z" fill="#14B8A6"/>
<path d="M29.144 35.288V31.96H59.992V35.288L52.952 36.056C51.5867 36.1413 50.776 36.4826 50.52 37.08C50.264 37.592 50.136 39.3413 50.136 42.328V79.96L82.136 41.56C84.2694 39.0853 85.336 37.592 85.336 37.08C85.4214 36.4826 84.7387 36.1413 83.288 36.056L76.76 35.288V31.96H101.08V35.288L94.552 36.056C93.6987 36.1413 93.016 36.312 92.504 36.568C91.992 36.7386 91.3947 37.208 90.712 37.976C90.1147 38.6586 89.0907 39.8533 87.64 41.56L67.672 65.624L91.992 108.632C93.1014 110.595 93.9121 112.003 94.424 112.856C95.0214 113.709 95.6187 114.264 96.216 114.52C96.8134 114.691 97.6241 114.819 98.648 114.904L104.792 115.672V119H84.824L60.248 74.584L50.136 86.616V108.632C50.136 111.619 50.264 113.368 50.52 113.88C50.776 114.392 51.5867 114.733 52.952 114.904L59.992 115.672V119H29.144V115.672L36.184 114.904C37.5494 114.733 38.36 114.392 38.616 113.88C38.872 113.368 39 111.619 39 108.632V42.328C39 39.3413 38.872 37.592 38.616 37.08C38.36 36.4826 37.5494 36.1413 36.184 36.056L29.144 35.288Z" fill="#14B8A6"/>
<path d="M180.577 94.2968C183.11 91.6776 185.071 89.5783 186.476 87.9988C187.882 86.4193 188.978 85.1197 189.781 84.06C190.538 83.0004 191.063 82.0407 191.356 81.1409C191.665 80.2412 191.819 79.2815 191.819 78.2219C191.819 76.3225 191.217 74.703 189.997 73.3434C188.777 71.9839 187.326 71.3041 185.642 71.3041C183.959 71.3041 183.712 71.524 182.801 71.9639C181.89 72.4037 181.149 73.0235 180.593 73.8233C180.037 73.0435 179.311 72.4237 178.415 71.9639C177.519 71.524 176.562 71.3041 175.527 71.3041C173.844 71.3041 172.393 71.9839 171.173 73.3434C169.953 74.703 169.35 76.3425 169.35 78.2219C169.35 80.1013 169.489 80.3012 169.767 81.1409C170.045 81.9807 170.57 82.9204 171.312 83.98C172.115 85.0397 173.18 86.3393 174.539 87.9188C175.898 89.4983 177.921 91.6176 180.593 94.2968H180.577ZM180.577 118.549C173.026 111.351 167.389 104.673 163.667 98.5154C159.946 92.3374 158.077 86.6392 158.077 81.3809C158.077 73.5034 160.332 67.2254 164.856 62.5668C169.381 57.8883 174.616 55.5491 180.577 55.5491C186.538 55.5491 191.773 57.8883 196.298 62.5668C200.823 67.2454 203.077 73.5034 203.077 81.3809C203.077 89.2584 201.209 92.3374 197.487 98.5154C193.765 104.693 188.129 111.371 180.577 118.549Z" fill="#14B8A6"/>
</svg>
