<svg width="314" height="97" viewBox="0 0 314 97" fill="none" xmlns="http://www.w3.org/2000/svg">
<path d="M302.966 95.896C296.31 95.896 292.385 92.824 291.19 86.68C288.203 90.0933 284.918 92.568 281.334 94.104C277.75 95.5546 274.209 96.28 270.71 96.28C264.737 96.28 260.342 94.616 257.526 91.288C254.71 87.96 253.302 83.9493 253.302 79.256C253.302 74.2213 255.009 70.2533 258.422 67.352C261.921 64.3653 267.937 62.872 276.47 62.872H290.934V52.504C290.934 45.6773 289.739 40.984 287.35 38.424C285.046 35.7786 281.889 34.456 277.878 34.456C275.318 34.456 273.014 34.968 270.966 35.992C268.918 37.016 267.425 38.8933 266.486 41.624C265.633 44.2693 265.547 48.152 266.23 53.272L256.118 51.736C255.691 47.7253 256.203 44.1413 257.654 40.984C259.19 37.7413 261.665 35.1813 265.078 33.304C268.577 31.3413 272.929 30.36 278.134 30.36C284.363 30.36 289.142 31.4267 292.47 33.56C295.798 35.608 298.102 38.296 299.382 41.624C300.747 44.952 301.43 48.5786 301.43 52.504V81.304C301.43 85.656 301.899 88.3867 302.838 89.496C303.862 90.6053 304.971 91.16 306.166 91.16C306.934 91.16 307.745 90.9893 308.598 90.648C309.451 90.2213 310.39 89.5813 311.414 88.728L313.718 91.928C312.438 93.0373 310.902 93.976 309.11 94.744C307.403 95.512 305.355 95.896 302.966 95.896ZM274.294 90.904C276.683 90.904 279.243 90.264 281.974 88.984C284.79 87.6187 287.777 84.9307 290.934 80.92V66.968H277.878C273.099 66.968 269.601 67.9493 267.382 69.912C265.249 71.7893 264.182 74.7333 264.182 78.744C264.182 82.584 264.993 85.5707 266.614 87.704C268.321 89.8373 270.881 90.904 274.294 90.904Z" fill="#14B8A6"/>
<path d="M216.613 69.144L208.805 67.224C198.138 64.4933 192.805 58.3493 192.805 48.792C192.805 45.6346 193.53 42.648 194.981 39.832C196.432 37.016 198.736 34.7546 201.893 33.048C205.136 31.256 209.274 30.36 214.309 30.36C219.941 30.36 224.464 31.2987 227.877 33.176C231.29 35.0533 233.68 37.4853 235.045 40.472C236.41 43.4587 236.837 46.7013 236.325 50.2L226.341 51.992C227.365 46.4453 226.768 42.136 224.549 39.064C222.416 35.992 218.874 34.456 213.925 34.456C210.085 34.456 207.013 35.4373 204.709 37.4C202.405 39.2773 201.253 42.0507 201.253 45.72C201.253 48.4507 202.106 50.8826 203.813 53.016C205.52 55.064 208.378 56.6 212.389 57.624L220.453 59.544C226.085 60.9093 230.437 63.0853 233.509 66.072C236.666 69.0586 238.245 72.984 238.245 77.848C238.245 83.3093 236.24 87.7467 232.229 91.16C228.304 94.5733 222.672 96.28 215.333 96.28C211.834 96.28 208.421 95.768 205.093 94.744C201.85 93.6347 198.992 91.928 196.517 89.624C194.128 87.2347 192.378 84.1626 191.269 80.408L198.437 77.848C199.376 83.224 201.424 86.9787 204.581 89.112C207.738 91.2453 211.365 92.312 215.461 92.312C217.85 92.312 220.112 91.928 222.245 91.16C224.464 90.392 226.256 89.1973 227.621 87.576C228.986 85.8693 229.669 83.6933 229.669 81.048C229.669 78.3173 228.73 75.9706 226.853 74.008C224.976 72.0453 221.562 70.424 216.613 69.144Z" fill="#14B8A6"/>
<path d="M79.959 3.73602V0.280029H100.311V84.632C100.311 87.6187 100.439 89.368 100.695 89.88C100.951 90.392 101.762 90.7334 103.127 90.904L110.167 91.672V95H79.959V91.672L86.999 90.904C88.3643 90.7334 89.175 90.392 89.431 89.88C89.687 89.368 89.815 87.6187 89.815 84.632V10.648C89.815 7.66136 89.687 5.91203 89.431 5.40002C89.175 4.88803 88.3643 4.54669 86.999 4.37603L79.959 3.73602Z" fill="#14B8A6"/>
<path d="M0.144043 11.288V7.95996H30.992V11.288L23.952 12.056C22.5867 12.1413 21.776 12.4826 21.52 13.08C21.264 13.592 21.136 15.3413 21.136 18.328V55.96L53.136 17.56C55.2694 15.0853 56.336 13.592 56.336 13.08C56.4214 12.4826 55.7387 12.1413 54.288 12.056L47.76 11.288V7.95996H72.08V11.288L65.552 12.056C64.6987 12.1413 64.016 12.312 63.504 12.568C62.992 12.7386 62.3947 13.208 61.712 13.976C61.1147 14.6586 60.0907 15.8533 58.64 17.56L38.672 41.624L62.992 84.632C64.1014 86.5946 64.9121 88.0026 65.424 88.856C66.0214 89.7093 66.6187 90.264 67.216 90.52C67.8134 90.6906 68.6241 90.8186 69.648 90.904L75.7921 91.672V95H55.824L31.248 50.584L21.136 62.616V84.632C21.136 87.6186 21.264 89.368 21.52 89.88C21.776 90.392 22.5867 90.7333 23.952 90.904L30.992 91.672V95H0.144043V91.672L7.18404 90.904C8.54938 90.7333 9.36004 90.392 9.61604 89.88C9.87204 89.368 10 87.6186 10 84.632V18.328C10 15.3413 9.87204 13.592 9.61604 13.08C9.36004 12.4826 8.54938 12.1413 7.18404 12.056L0.144043 11.288Z" fill="#14B8A6"/>
<path d="M151.577 70.2968C154.11 67.6776 156.071 65.5783 157.476 63.9988C158.882 62.4193 159.978 61.1197 160.781 60.06C161.538 59.0004 162.063 58.0407 162.356 57.1409C162.665 56.2412 162.819 55.2815 162.819 54.2219C162.819 52.3225 162.217 50.703 160.997 49.3434C159.777 47.9839 158.326 47.3041 156.642 47.3041C154.959 47.3041 154.712 47.524 153.801 47.9639C152.89 48.4037 152.149 49.0235 151.593 49.8233C151.037 49.0435 150.311 48.4237 149.415 47.9639C148.519 47.524 147.562 47.3041 146.527 47.3041C144.844 47.3041 143.393 47.9839 142.173 49.3434C140.953 50.703 140.35 52.3425 140.35 54.2219C140.35 56.1013 140.489 56.3012 140.767 57.1409C141.045 57.9807 141.57 58.9204 142.312 59.98C143.115 61.0397 144.18 62.3393 145.539 63.9188C146.898 65.4983 148.921 67.6176 151.593 70.2968H151.577ZM151.577 94.5491C144.026 87.3514 138.389 80.6735 134.667 74.5154C130.946 68.3374 129.077 62.6392 129.077 57.3809C129.077 49.5034 131.332 43.2254 135.856 38.5668C140.381 33.8883 145.616 31.5491 151.577 31.5491C157.538 31.5491 162.773 33.8883 167.298 38.5668C171.823 43.2454 174.077 49.5034 174.077 57.3809C174.077 65.2584 172.209 68.3374 168.487 74.5154C164.765 80.6935 159.129 87.3714 151.577 94.5491Z" fill="#14B8A6"/>
</svg>
